<svg xmlns="http://www.w3.org/2000/svg" xmlns:xlink="http://www.w3.org/1999/xlink" width="560" zoomAndPan="magnify" viewBox="0 0 420 114.749999" height="153" preserveAspectRatio="xMidYMid meet" version="1.0"><defs><g/><clipPath id="7be6317dc1"><path d="M 185.542969 40.128906 L 189.285156 40.128906 L 189.285156 45.011719 L 185.542969 45.011719 Z M 185.542969 40.128906 " clip-rule="nonzero"/></clipPath><clipPath id="d607abc0d2"><path d="M 0.542969 0.128906 L 4.285156 0.128906 L 4.285156 5.011719 L 0.542969 5.011719 Z M 0.542969 0.128906 " clip-rule="nonzero"/></clipPath><clipPath id="78f6f11db3"><rect x="0" width="5" y="0" height="6"/></clipPath><clipPath id="1f27a7699f"><rect x="0" width="375" y="0" height="71"/></clipPath></defs><g clip-path="url(#7be6317dc1)"><g transform="matrix(1, 0, 0, 1, 185, 40)"><g clip-path="url(#78f6f11db3)"><g clip-path="url(#d607abc0d2)"><path fill="#000000" d="M 0.542969 0.128906 L 4.285156 0.128906 L 4.285156 5.011719 L 0.542969 5.011719 Z M 0.542969 0.128906 " fill-opacity="1" fill-rule="nonzero"/></g></g></g></g><g transform="matrix(1, 0, 0, 1, 23, 21)"><g clip-path="url(#1f27a7699f)"><g fill="#000000" fill-opacity="1"><g transform="translate(0.299415, 56.509211)"><g><path d="M 14.46875 -32.703125 L 2 -32.703125 L 2 -41.03125 L 35.984375 -41.03125 L 35.984375 -32.703125 L 23.5 -32.703125 L 23.5 0 L 14.46875 0 Z M 14.46875 -32.703125 "/></g></g></g><g fill="#000000" fill-opacity="1"><g transform="translate(39.565314, 56.509211)"><g><path d="M 5.328125 -41.03125 L 14.359375 -41.03125 L 14.359375 0 L 5.328125 0 Z M 5.328125 -41.03125 "/></g></g></g><g fill="#000000" fill-opacity="1"><g transform="translate(60.546277, 56.509211)"><g><path d="M 24.140625 0.703125 C 21.140625 0.703125 18.347656 0.15625 15.765625 -0.9375 C 13.179688 -2.03125 10.953125 -3.523438 9.078125 -5.421875 C 7.203125 -7.316406 5.738281 -9.550781 4.6875 -12.125 C 3.632812 -14.707031 3.109375 -17.460938 3.109375 -20.390625 L 3.109375 -20.515625 C 3.109375 -23.441406 3.632812 -26.1875 4.6875 -28.75 C 5.738281 -31.3125 7.203125 -33.554688 9.078125 -35.484375 C 10.953125 -37.421875 13.195312 -38.945312 15.8125 -40.0625 C 18.4375 -41.175781 21.332031 -41.734375 24.5 -41.734375 C 26.414062 -41.734375 28.164062 -41.578125 29.75 -41.265625 C 31.332031 -40.953125 32.765625 -40.519531 34.046875 -39.96875 C 35.335938 -39.425781 36.53125 -38.765625 37.625 -37.984375 C 38.71875 -37.203125 39.734375 -36.34375 40.671875 -35.40625 L 34.9375 -28.78125 C 33.332031 -30.226562 31.695312 -31.359375 30.03125 -32.171875 C 28.375 -32.992188 26.507812 -33.40625 24.4375 -33.40625 C 22.71875 -33.40625 21.125 -33.070312 19.65625 -32.40625 C 18.195312 -31.75 16.9375 -30.832031 15.875 -29.65625 C 14.820312 -28.476562 14.003906 -27.117188 13.421875 -25.578125 C 12.835938 -24.035156 12.546875 -22.382812 12.546875 -20.625 L 12.546875 -20.515625 C 12.546875 -18.753906 12.835938 -17.09375 13.421875 -15.53125 C 14.003906 -13.96875 14.8125 -12.597656 15.84375 -11.421875 C 16.882812 -10.253906 18.132812 -9.328125 19.59375 -8.640625 C 21.0625 -7.960938 22.675781 -7.625 24.4375 -7.625 C 26.78125 -7.625 28.765625 -8.050781 30.390625 -8.90625 C 32.015625 -9.769531 33.625 -10.941406 35.21875 -12.421875 L 40.96875 -6.625 C 39.914062 -5.488281 38.820312 -4.472656 37.6875 -3.578125 C 36.550781 -2.679688 35.304688 -1.910156 33.953125 -1.265625 C 32.609375 -0.617188 31.132812 -0.128906 29.53125 0.203125 C 27.9375 0.535156 26.140625 0.703125 24.140625 0.703125 Z M 24.140625 0.703125 "/></g></g></g><g fill="#000000" fill-opacity="1"><g transform="translate(103.914435, 56.509211)"><g><path d="M 24.84375 0.703125 C 21.6875 0.703125 18.773438 0.144531 16.109375 -0.96875 C 13.453125 -2.082031 11.15625 -3.585938 9.21875 -5.484375 C 7.289062 -7.378906 5.789062 -9.601562 4.71875 -12.15625 C 3.644531 -14.71875 3.109375 -17.460938 3.109375 -20.390625 L 3.109375 -20.515625 C 3.109375 -23.441406 3.65625 -26.1875 4.75 -28.75 C 5.84375 -31.3125 7.351562 -33.554688 9.28125 -35.484375 C 11.21875 -37.421875 13.523438 -38.945312 16.203125 -40.0625 C 18.878906 -41.175781 21.800781 -41.734375 24.96875 -41.734375 C 28.132812 -41.734375 31.046875 -41.175781 33.703125 -40.0625 C 36.359375 -38.945312 38.648438 -37.441406 40.578125 -35.546875 C 42.515625 -33.648438 44.019531 -31.421875 45.09375 -28.859375 C 46.175781 -26.304688 46.71875 -23.5625 46.71875 -20.625 L 46.71875 -20.515625 C 46.71875 -17.585938 46.164062 -14.84375 45.0625 -12.28125 C 43.96875 -9.71875 42.453125 -7.46875 40.515625 -5.53125 C 38.585938 -3.601562 36.285156 -2.082031 33.609375 -0.96875 C 30.929688 0.144531 28.007812 0.703125 24.84375 0.703125 Z M 24.96875 -7.625 C 26.757812 -7.625 28.414062 -7.953125 29.9375 -8.609375 C 31.46875 -9.273438 32.769531 -10.191406 33.84375 -11.359375 C 34.914062 -12.535156 35.753906 -13.894531 36.359375 -15.4375 C 36.972656 -16.988281 37.28125 -18.640625 37.28125 -20.390625 L 37.28125 -20.515625 C 37.28125 -22.273438 36.972656 -23.9375 36.359375 -25.5 C 35.753906 -27.0625 34.894531 -28.425781 33.78125 -29.59375 C 32.675781 -30.769531 31.359375 -31.695312 29.828125 -32.375 C 28.304688 -33.0625 26.644531 -33.40625 24.84375 -33.40625 C 23.007812 -33.40625 21.335938 -33.070312 19.828125 -32.40625 C 18.328125 -31.75 17.039062 -30.832031 15.96875 -29.65625 C 14.894531 -28.476562 14.054688 -27.117188 13.453125 -25.578125 C 12.847656 -24.035156 12.546875 -22.382812 12.546875 -20.625 L 12.546875 -20.515625 C 12.546875 -18.753906 12.847656 -17.09375 13.453125 -15.53125 C 14.054688 -13.96875 14.914062 -12.597656 16.03125 -11.421875 C 17.144531 -10.253906 18.453125 -9.328125 19.953125 -8.640625 C 21.460938 -7.960938 23.132812 -7.625 24.96875 -7.625 Z M 24.96875 -7.625 "/></g></g></g><g fill="#000000" fill-opacity="1"><g transform="translate(155.018663, 56.509211)"><g><path d="M 4.921875 -41.03125 L 13.25 -41.03125 L 32.46875 -15.765625 L 32.46875 -41.03125 L 41.375 -41.03125 L 41.375 0 L 33.703125 0 L 13.828125 -26.078125 L 13.828125 0 L 4.921875 0 Z M 4.921875 -41.03125 "/></g></g></g><g fill="#000000" fill-opacity="1"><g transform="translate(202.606561, 56.509211)"><g><path d="M 24.84375 0.703125 C 21.6875 0.703125 18.773438 0.144531 16.109375 -0.96875 C 13.453125 -2.082031 11.15625 -3.585938 9.21875 -5.484375 C 7.289062 -7.378906 5.789062 -9.601562 4.71875 -12.15625 C 3.644531 -14.71875 3.109375 -17.460938 3.109375 -20.390625 L 3.109375 -20.515625 C 3.109375 -23.441406 3.65625 -26.1875 4.75 -28.75 C 5.84375 -31.3125 7.351562 -33.554688 9.28125 -35.484375 C 11.21875 -37.421875 13.523438 -38.945312 16.203125 -40.0625 C 18.878906 -41.175781 21.800781 -41.734375 24.96875 -41.734375 C 28.132812 -41.734375 31.046875 -41.175781 33.703125 -40.0625 C 36.359375 -38.945312 38.648438 -37.441406 40.578125 -35.546875 C 42.515625 -33.648438 44.019531 -31.421875 45.09375 -28.859375 C 46.175781 -26.304688 46.71875 -23.5625 46.71875 -20.625 L 46.71875 -20.515625 C 46.71875 -17.585938 46.164062 -14.84375 45.0625 -12.28125 C 43.96875 -9.71875 42.453125 -7.46875 40.515625 -5.53125 C 38.585938 -3.601562 36.285156 -2.082031 33.609375 -0.96875 C 30.929688 0.144531 28.007812 0.703125 24.84375 0.703125 Z M 24.96875 -7.625 C 26.757812 -7.625 28.414062 -7.953125 29.9375 -8.609375 C 31.46875 -9.273438 32.769531 -10.191406 33.84375 -11.359375 C 34.914062 -12.535156 35.753906 -13.894531 36.359375 -15.4375 C 36.972656 -16.988281 37.28125 -18.640625 37.28125 -20.390625 L 37.28125 -20.515625 C 37.28125 -22.273438 36.972656 -23.9375 36.359375 -25.5 C 35.753906 -27.0625 34.894531 -28.425781 33.78125 -29.59375 C 32.675781 -30.769531 31.359375 -31.695312 29.828125 -32.375 C 28.304688 -33.0625 26.644531 -33.40625 24.84375 -33.40625 C 23.007812 -33.40625 21.335938 -33.070312 19.828125 -32.40625 C 18.328125 -31.75 17.039062 -30.832031 15.96875 -29.65625 C 14.894531 -28.476562 14.054688 -27.117188 13.453125 -25.578125 C 12.847656 -24.035156 12.546875 -22.382812 12.546875 -20.625 L 12.546875 -20.515625 C 12.546875 -18.753906 12.847656 -17.09375 13.453125 -15.53125 C 14.054688 -13.96875 14.914062 -12.597656 16.03125 -11.421875 C 17.144531 -10.253906 18.453125 -9.328125 19.953125 -8.640625 C 21.460938 -7.960938 23.132812 -7.625 24.96875 -7.625 Z M 24.96875 -7.625 "/></g></g></g><g fill="#000000" fill-opacity="1"><g transform="translate(253.710789, 56.509211)"><g><path d="M 4.921875 -41.03125 L 14.65625 -41.03125 L 25.4375 -23.671875 L 36.21875 -41.03125 L 45.953125 -41.03125 L 45.953125 0 L 36.984375 0 L 36.984375 -26.78125 L 25.4375 -9.265625 L 25.203125 -9.265625 L 13.765625 -26.609375 L 13.765625 0 L 4.921875 0 Z M 4.921875 -41.03125 "/></g></g></g><g fill="#000000" fill-opacity="1"><g transform="translate(305.869927, 56.509211)"><g><path d="M 5.328125 -41.03125 L 14.359375 -41.03125 L 14.359375 0 L 5.328125 0 Z M 5.328125 -41.03125 "/></g></g></g><g fill="#000000" fill-opacity="1"><g transform="translate(326.850891, 56.509211)"><g><path d="M 18.984375 -41.3125 L 27.3125 -41.3125 L 44.890625 0 L 35.453125 0 L 31.703125 -9.203125 L 14.359375 -9.203125 L 10.609375 0 L 1.40625 0 Z M 28.484375 -17.171875 L 23.03125 -30.484375 L 17.578125 -17.171875 Z M 28.484375 -17.171875 "/></g></g></g></g></g></svg>